<?xml version="1.0" encoding="utf-8"?>
<!-- Generator: Adobe Illustrator 16.0.0, SVG Export Plug-In . SVG Version: 6.00 Build 0)  -->
<!DOCTYPE svg PUBLIC "-//W3C//DTD SVG 1.0//EN" "http://www.w3.org/TR/2001/REC-SVG-20010904/DTD/svg10.dtd">
<svg version="1.0" id="Layer_1" xmlns="http://www.w3.org/2000/svg" xmlns:xlink="http://www.w3.org/1999/xlink" x="0px" y="0px"
	 width="152.4px" height="154.8px" viewBox="0 0 152.4 154.8" enable-background="new 0 0 152.4 154.8" xml:space="preserve">
<g>
	<g>
		<polygon fill="#708899" points="40.8,125.8 42.3,148.5 60.6,135.8 52.5,126 		"/>
		<polygon fill="#708899" points="129.8,48 137.3,29.4 116.5,32.7 119,42.6 		"/>
		<polygon fill="#708899" points="16.4,80.5 0,95.5 20.2,101.6 22.9,88.9 		"/>
		<polygon fill="#708899" points="91.8,135.9 110.1,148.5 111.6,125.8 99.9,126 		"/>
		<polygon fill="#708899" points="35.8,32.7 15.1,29.4 22.6,48 33.4,42.6 		"/>
		<polygon fill="#708899" points="136,80.6 129.5,88.9 132.2,101.6 152.4,95.5 		"/>
		<polygon fill="#708899" points="86.1,17.4 76.2,0 66.3,17.4 76.2,22 		"/>
		<g>
			<polygon fill="#97925E" points="42.3,6.3 42.3,6.3 35.8,32.7 44.3,34.1 			"/>
			<polygon fill="#97925E" points="0,59.3 25.5,55.4 22.6,48 0,59.3 16.4,80.5 22.7,74.8 			"/>
			<polygon fill="#97925E" points="20.2,101.6 15.1,125.4 15.1,125.4 27.6,103.8 			"/>
			<polygon fill="#97925E" points="152.4,59.3 129.8,48 126.8,55.4 			"/>
			<polygon fill="#97925E" points="116.5,32.7 110.1,6.4 108.1,34.1 			"/>
			<polygon fill="#97925E" points="137.3,125.3 132.2,101.6 124.9,103.8 			"/>
			<polygon fill="#97925E" points="136,80.6 152.3,59.4 129.7,74.9 			"/>
			<polygon fill="#97925E" points="66.3,17.4 42.3,6.3 62.2,24.7 			"/>
			<polygon fill="#97925E" points="110.1,6.3 110.1,6.3 86.1,17.4 90.2,24.7 			"/>
			<polygon fill="#97925E" points="60.6,135.8 76.2,154.8 76.2,154.8 67,131.4 			"/>
			<polygon fill="#97925E" points="15.1,125.4 40.8,125.8 40.2,117.7 			"/>
			<polygon fill="#97925E" points="76.2,154.8 91.8,135.9 85.5,131.5 			"/>
			<polygon fill="#97925E" points="111.6,125.8 137.3,125.4 137.3,125.4 112.1,117.7 			"/>
		</g>
		<polygon fill="#537567" points="45.7,52.4 44.3,34.1 35.8,32.7 33.4,42.6 22.6,48 25.5,55.4 		"/>
		<polygon fill="#537567" points="38.1,85.4 22.7,74.8 16.4,80.5 22.9,88.9 20.2,101.6 27.6,103.8 		"/>
		<polygon fill="#537567" points="106.8,52.4 126.8,55.4 129.8,48 119,42.6 116.5,32.7 108.1,34.1 		"/>
		<polygon fill="#537567" points="136,80.6 129.7,74.9 114.3,85.4 124.9,103.8 132.2,101.6 129.5,88.9 		"/>
		<polygon fill="#537567" points="76.2,37.6 90.2,24.7 86.1,17.4 76.2,22 66.3,17.4 62.2,24.7 		"/>
		<polygon fill="#537567" points="59.3,111.9 40.2,117.7 40.8,125.8 52.5,126 60.6,135.8 67,131.4 		"/>
		<polygon fill="#537567" points="93.2,111.9 85.5,131.5 91.8,135.9 99.9,126 111.6,125.8 112.1,117.7 		"/>
		<g>
			<polygon fill="#95686D" points="55.8,35.9 62.2,24.7 42.3,6.3 42.3,6.3 44.3,34.1 			"/>
			<polygon fill="#95686D" points="25.5,55.4 0,59.3 22.7,74.8 30.5,67.7 			"/>
			<polygon fill="#95686D" points="112.8,107.4 112.1,117.7 137.3,125.4 137.3,125.3 124.9,103.8 			"/>
			<polygon fill="#95686D" points="76.2,125 67,131.4 76.2,154.8 76.2,154.8 85.5,131.5 			"/>
			<polygon fill="#95686D" points="121.9,67.7 129.7,74.9 152.3,59.4 152.4,59.3 152.4,59.3 126.8,55.4 			"/>
			<polygon fill="#95686D" points="39.5,107.4 27.6,103.8 15.1,125.4 15.1,125.4 40.2,117.7 			"/>
			<polygon fill="#95686D" points="96.5,35.9 108.1,34.1 110.1,6.4 110.1,6.3 90.2,24.7 			"/>
		</g>
		<path fill="#4D3040" d="M126.8,55.4l-20.1-3.1l1.3-18.3l-11.6,1.8l-6.3-11.2l-14,12.9l-14-13l-6.4,11.2l-11.5-1.8l1.3,18.3
			l-20.1,3.1l4.9,12.3l-7.8,7.1l15.5,10.6l-10.6,18.4l12,3.6l0.7,10.4l19.1-5.8l7.7,19.5l9.2-6.4l9.3,6.4l7.7-19.5l19,5.8l0.7-10.4
			l12-3.6l-10.6-18.4l15.4-10.6l-7.8-7.2L126.8,55.4z M95.1,78c0,10.5-8.5,18.9-18.9,18.9S57.2,88.4,57.2,78c0,0,0,0,0,0
			c0,0,0,0,0,0c0-2.6,0.5-5.1,1.5-7.4C61.6,63.7,68.3,59,76.2,59c7.8,0,14.6,4.8,17.4,11.6C94.6,72.8,95.1,75.3,95.1,78
			C95.1,77.9,95.1,77.9,95.1,78C95.1,77.9,95.1,77.9,95.1,78z"/>
	</g>
</g>
</svg>
