<svg xmlns="http://www.w3.org/2000/svg" xmlns:xlink="http://www.w3.org/1999/xlink" version="1.0" id="Layer_1" x="0px" y="0px" width="498px" height="46px" viewBox="0 0 498 46" enable-background="new 0 0 498 46" xml:space="preserve">
<g>
	<path fill="#CC0000" d="M321 0h-12v1.3c5 0.4 5 2.7 5 6.9v10c0 4.4 0.2 6.8-1.3 9.1c-2.2 3.5-6.3 4.7-9.6 4.7c-5 0-7.7-2-8.9-4.1 c-1.3-2.2-1.2-5-1.2-9.9V8.8c0-7.5 0-7.5 5-7.5V0h-15v1h1c4.6 0 5 0.9 5 7.9v8.9c0 5.9-0.2 8.3 1.5 10.8c1.4 2 4.5 5.1 11.6 5.1 c6.2 0 10.5-2.6 12.3-6c1.4-2.5 1.5-4.8 1.5-9.3V8.7c0-4.3 0-7 5-7.3V0z"/>
	<path fill="#CC0000" d="M342 25.9v-7.7c0-3.5-1.9-6.9-6.7-6.9c-3 0-5.5 1.3-8.1 4.2c-0.1-1.1-0.3-2.5-0.8-4.5h-0.7 c-0.9 1-3.7 1.2-5.7 1.5v1.2c3 0 3 0.3 3 6v6.2c0 5.7 0 6-3 6V33h11v-1.1c-4 0-4-0.4-4-6v-8.5c2-2 3.7-4.5 6.7-4.5 c2.6 0 4.3 1.5 4.3 6.3v6.7c0 5.7 0 6-4 6V33h11v-1.1C342 31.9 342 31.6 342 25.9z"/>
	<path fill="#CC0000" d="M355 28V11h-0.7c-2.2 1-5.3 1.6-7.3 1.7v1.2c4 0 4 0.1 4 5.8V28c0 3.6-0.1 4-2.8 4H347v1h11v-1h-0.3 C355.1 32 355 31.3 355 28z"/>
	<path fill="#CC0000" d="M376 13.3c1 0.1 2.7 0.3 2.7 1.8c0 0.7-0.4 1.8-1.2 3.5L372.5 30l-6.1-13.7c-0.5-1.2-0.8-1.6-0.8-1.8 c0-1.3 1.4-1.3 2.4-1.3V12h-9v1.3c2 0.1 2.5 0.9 3.9 3.9l7.5 16.8h1.5l6.7-15c1.6-3.6 2.5-5.5 4.5-5.7V12h-7V13.3z"/>
	<path fill="#CC0000" d="M403.1 20c-0.2-5-3.1-8.8-9-8.8c-6.3 0-10.5 5-10.5 11.5c0 6.8 4.9 11 10.7 11c4.2 0 7.3-1.7 8.6-5.7h-1.2 c-1.5 3-3.8 4.4-6.7 4.4c-5.1 0-7.2-4.2-7.2-10.8c0-0.4 0.1-0.6 0.1-1.6H403.1z M393.9 12.4c4.5 0 5.2 4.6 5.2 6.6H388 C388.2 16 389.8 12.4 393.9 12.4z"/>
	<path fill="#CC0000" d="M421.1 11.3c-2.7 0-6.4 1.6-8.1 5.5c0-3-0.5-4.7-0.7-5.5l-0.4 0.1c-0.8 0.3-3.9 1.1-5.9 1.4V14 c4 0 4 0.2 4 6v5.9c0 5.8 0 6-4 6V33h11v-1h-0.6c-3.1 0-3.4-0.7-3.4-6.1V21c0-5.3 4.2-7.8 6.3-7.8c1.2 0 1.7 1 1.9 1.6 c0.3 0.9 0.9 1.7 2.1 1.7c1.1 0 1.8-0.9 1.8-1.9C425.1 13.3 423.8 11.3 421.1 11.3z"/>
	<path fill="#CC0000" d="M435.2 20.4c-3.8-1.4-5.8-2.2-5.8-4.7c0-1.5 1.1-3.3 4.6-3.3c3.7 0 5.8 3.6 6.3 5.6h0.8v-6h-0.8 c-0.1 0-0.6 1.2-1 1.7c-1.2-1.2-3-2.3-5.4-2.3c-4.7 0-6.7 3.1-6.7 5.8c0 3.7 2.1 5.2 7 6.9c3.3 1.2 6 2.4 6 5c0 1-0.5 3.8-4.9 3.8 c-4.8 0-6.6-3.8-7.2-5.8h-1v7h1c0.1-1 0.6-1.7 1.1-2.3c1.2 1.2 3 2.3 6.1 2.3c4.8 0 7.3-2.7 7.3-6.2 C442.6 23.6 439.4 21.8 435.2 20.4z"/>
	<path fill="#CC0000" d="M453 28V11h-0.1c-2.2 1-5.9 1.6-6.9 1.7v1.2c4 0 4 0.1 4 5.8V28c0 3.6-0.5 4-3.2 4H446v1h11v-1h-0.7 C453.7 32 453 31.3 453 28z"/>
	<path fill="#CC0000" d="M469 32.1c-3.1 0-3-3.3-3-6.2V13h6v-1h-6V6h-1.1c-0.8 5-3.9 6.1-5.9 6.2V13h3v13.9c0 3.1 0.7 5 2 6.1 c0.8 0.7 2 1 3.5 1c0.4 0 3.7 0 5.3-3.4l-0.7-0.5C471.7 30.7 470.8 32.1 469 32.1z"/>
	<path fill="#CC0000" d="M491 12v1.3c1 0 2.7 0.3 2.7 1.4c0 0.4-0.4 1.2-0.8 2l-5.2 12.5L482 16.9c-0.4-0.8-0.8-2.1-0.8-2.6 c0-0.9 0.8-0.9 2.8-1V12h-10v1.3c2 0.1 2.8 0.9 4 3.5l7.8 16.8l-2 5c-0.7 1.8-1.3 2.1-3.1 2.9c-0.9 0.4-2.7 1.2-2.7 2.9 c0 1 0.8 1.5 1.6 1.5c2 0 3.3-2.3 4.7-5.5l9.3-22.5c1.3-3.1 2.4-4.4 4.4-4.6V12H491z"/>
	<circle fill="#CC0000" cx="352.6" cy="4.7" r="2.3"/>
	<path fill="#CC0000" d="M451.2 7c1.2 0 2.3-1 2.3-2.3c0-1.2-1-2.3-2.3-2.3c-1.2 0-2.3 1-2.3 2.3C448.9 6 450 7 451.2 7z"/>
	<path fill="#CC0000" d="M37 0H24v1.4c6 0.1 6 2.2 6 5v19.9L10.3 0H1v1.4c5 0 5 0.5 5 7.1v17.9c0 2.9 0 5.3-6 5.5v1h13v-1 c-5-0.2-6-2.1-6-5.5V3l23.4 31H31V6.7c0-3.1 0-4.9 6-5.3V0z"/>
	<path fill="#CC0000" d="M47.2 11.4c-6.2 0-11.1 4.8-11.1 11.2c0 7.7 5.8 11.4 11.1 11.4c5.6 0 11.2-3.9 11.2-11.3 C58.4 16 53.4 11.4 47.2 11.4z M47.2 32.7c-4.8 0-6.9-3.2-6.9-9.9c0-5.7 1.6-10.2 6.9-10.2c5.4 0 7 4.6 7 10.2 C54.2 29.4 52 32.7 47.2 32.7z"/>
	<path fill="#CC0000" d="M75.5 11.4c-2.7 0-6.4 1.6-8.1 5.5c0-3-0.5-4.7-0.7-5.5l-0.6 0.1c-0.8 0.3-3.1 1.1-6.1 1.4V14 c4 0 4 0.2 4 6v5.9c0 5.8 0 6-4 6v1h12v-1h-1.2c-3.1 0-2.8-0.7-2.8-6.1V21c0-5.3 3.9-7.8 6-7.8c1.2 0 1.5 1 1.8 1.6 c0.3 0.9 0.9 1.7 2 1.7c1.1 0 1.8-0.9 1.8-1.9C79.5 13.3 78.2 11.4 75.5 11.4z"/>
	<path fill="#CC0000" d="M91.1 32.2C88 32.2 88 28.9 88 26V13h6v-1h-6V6h-0.8c-0.8 5-3.2 6.1-6.2 6.2V13h3v13.9c0 3.1 0.8 5 2.2 6.1 c0.8 0.7 2.1 1 3.5 1c0.4 0 3.8 0 5.4-3.4l-0.8-0.5C93.8 30.8 92.9 32.2 91.1 32.2z"/>
	<path fill="#CC0000" d="M119 25.9v-7.4c0-4.8-2.5-7.2-7.2-7.2c-2.7 0-4.8 1.6-7.8 4.3V0h-0.1C102.2 0 99 0.8 97 0.8V2 c4 0 4 1.2 4 4.9v19.1c0 5.8 0 6-4 6v1h11v-1c-4 0-4-0.4-4-6v-8.4c2-2.1 4-4.6 6.4-4.6c3.1 0 4.6 1.4 4.6 6.3v6.7c0 5.8 0 6-3 6v1 h10v-1C119 32 119 31.7 119 25.9z"/>
	<path fill="#CC0000" d="M142.8 20c-0.2-5-3.1-8.7-9.1-8.7c-6.3 0-10.5 5-10.5 11.5c0 6.7 4.9 11 10.7 11c4.2 0 7.3-1.7 8.6-5.7 h-1.2c-1.5 3-3.8 4.4-6.7 4.4c-5.1 0-7.2-4.2-7.2-10.8c0-0.4 0.1-0.6 0.1-1.6H142.8z M133.7 12.4c4.5 0 5.2 4.6 5.2 6.6h-11.2 C128 16 129.5 12.4 133.7 12.4z"/>
	<path fill="#CC0000" d="M177.9 20.4c-3.8-1.4-5.8-2.3-5.8-4.7c0-1.5 1.2-3.3 4.6-3.3c3.7 0 5.8 3.6 6.3 5.6h1.1v-6h-1.1 c-0.1 0-0.6 1.2-1 1.7c-1.2-1.2-3-2.3-5.4-2.3c-4.7 0-6.7 3.1-6.7 5.8c0 3.7 2.1 5.2 7 6.9c3.3 1.2 6 2.4 6 5c0 1-0.5 3.8-4.9 3.8 c-4.8 0-6.6-3.9-7.2-5.9H170v7h0.7c0.1-1 0.6-1.7 1.1-2.3c1.2 1.2 3 2.3 6.1 2.3c4.8 0 7.3-2.6 7.3-6.2 C185.3 23.6 182.1 21.9 177.9 20.4z"/>
	<path fill="#CC0000" d="M198.1 32.2c-3.1 0-3.1-3.3-3.1-6.2V13h6v-1h-6V6h-1c-0.8 5-4 6.1-6 6.2V13h3v13.9c0 3.1 0.7 5 2.1 6.1 c0.8 0.7 2 1 3.5 1c0.4 0 3.7 0 5.4-3.4l-0.7-0.5C200.7 30.8 199.8 32.2 198.1 32.2z"/>
	<path fill="#CC0000" d="M222.7 20c-0.2-5-3.1-8.7-9.1-8.7c-6.3 0-10.5 5-10.5 11.5c0 6.7 4.9 11 10.7 11c4.2 0 7.3-1.7 8.6-5.7 h-1.2c-1.5 3-3.8 4.4-6.7 4.4c-5.1 0-7.2-4.2-7.2-10.8c0-0.4 0.1-0.6 0.1-1.6H222.7z M213.6 12.4c4.5 0 5.2 4.6 5.2 6.6h-11.2 C207.9 16 209.4 12.4 213.6 12.4z"/>
	<path fill="#CC0000" d="M240.1 11.4c-2.7 0-6.4 1.6-8.1 5.5c0-3-0.5-4.7-0.7-5.5l-0.4 0.1c-0.8 0.3-3.9 1.1-5.9 1.4V14 c4 0 4 0.2 4 6v5.9c0 5.8 0 6-4 6v1h11v-1h-0.6c-3.1 0-3.4-0.7-3.4-6.1V21c0-5.3 4.2-7.8 6.3-7.8c1.2 0 1.7 1 1.9 1.6 c0.3 0.9 0.9 1.7 2.1 1.7c1.1 0 1.8-0.9 1.8-1.9C244.1 13.3 242.8 11.4 240.1 11.4z"/>
	<path fill="#CC0000" d="M268 25.9v-7.7c0-3.5-1.9-6.9-6.7-6.9c-3 0-5.5 1.2-8.1 4.2c-0.1-1.1-0.3-2.5-0.8-4.5h-0.7 c-0.9 1-3.7 1.2-5.7 1.6v1.2c3 0 3 0.3 3 6v6.2c0 5.7 0 6-3 6v1h11v-1c-4 0-4-0.4-4-6v-8.5c2-2 3.7-4.5 6.7-4.5 c2.6 0 4.3 1.5 4.3 6.3v6.7c0 5.7 0 6-4 6v1h11v-1C268 32 268 31.7 268 25.9z"/>
	<path fill="#CC0000" d="M164.6 31.8c-1.6 0-1.6-1-1.6-4.6v-8.5c0-3.1-0.5-7.3-7.7-7.3c-5.2 0-8.5 2.7-8.5 4.8 c0 0.9 0.6 1.5 1.4 1.5c1.4 0 1.9-1 2.2-2.1c0.4-1.4 1-3 4.3-3c3.9 0 4.2 2.5 4.2 5.6v1.3l-3.8 1.4c-7.4 2.5-9.5 5.4-9.5 8.4 c0 3 2.4 4.4 5.4 4.4c2.5 0 5.1-1 8.2-3.7c0.3 1.3 1 3.5 4 3.5c2.9 0 4.1-1.5 4.2-4.5h-0.9C166.2 32 165.2 31.8 164.6 31.8z M159 28.8c-2 1.8-4.8 3.3-6.7 3.3c-2.2 0-3.2-1.6-3.2-3.5c0-2.9 2.6-5.5 7-7l2.9-1V28.8z"/>
</g>
</svg>
